<?xml version="1.0" encoding="UTF-8" standalone="no"?>
<svg
   xmlns:dc="http://purl.org/dc/elements/1.1/"
   xmlns:cc="http://creativecommons.org/ns#"
   xmlns:rdf="http://www.w3.org/1999/02/22-rdf-syntax-ns#"
   xmlns:svg="http://www.w3.org/2000/svg"
   xmlns="http://www.w3.org/2000/svg"
   xmlns:sodipodi="http://sodipodi.sourceforge.net/DTD/sodipodi-0.dtd"
   xmlns:inkscape="http://www.inkscape.org/namespaces/inkscape"
   sodipodi:docname="logo.svg"
   inkscape:version="1.0 (6e3e5246a0, 2020-05-07)"
   id="svg3961"
   version="1.1"
   viewBox="0 0 90 59"
   height="59mm"
   width="90mm">
  <defs
     id="defs3955" />
  <sodipodi:namedview
     inkscape:window-maximized="1"
     inkscape:window-y="27"
     inkscape:window-x="46"
     inkscape:window-height="1016"
     inkscape:window-width="1874"
     showgrid="false"
     inkscape:document-rotation="0"
     inkscape:current-layer="layer1"
     inkscape:document-units="mm"
     inkscape:cy="275.88867"
     inkscape:cx="1093.9206"
     inkscape:zoom="0.49497475"
     inkscape:pageshadow="2"
     inkscape:pageopacity="0.0"
     borderopacity="1.0"
     bordercolor="#666666"
     pagecolor="#ffffff"
     id="base" />
  <metadata
     id="metadata3958">
    <rdf:RDF>
      <cc:Work
         rdf:about="">
        <dc:format>image/svg+xml</dc:format>
        <dc:type
           rdf:resource="http://purl.org/dc/dcmitype/StillImage" />
        <dc:title></dc:title>
      </cc:Work>
    </rdf:RDF>
  </metadata>
  <g
     id="layer1"
     inkscape:groupmode="layer"
     inkscape:label="Layer 1">
    <g
       id="g88"
       transform="matrix(0.35277777,0,0,-0.35277777,22.768816,5.7858445)">
      <path
         d="m 0,0 c -1.08,-2.91 -0.64,-6.14 -0.18,-9.21 0.95,-6.47 1.41,-11.98 1.88,-18.16 2.52,6.11 5.04,12.21 7.55,18.31 0.98,2.38 1.98,4.84 1.92,7.4 C 11.1,0.92 9.68,3.65 7.21,4.39 4.25,5.28 1.08,2.9 0,0"
         style="fill:#fb440f;fill-opacity:1;fill-rule:nonzero;stroke:none"
         id="path90" />
    </g>
    <g
       id="g138"
       transform="matrix(0.35277777,0,0,-0.35277777,83.626576,36.241185)">
      <path
         d="m 0,0 c 0.07,-1.54 -0.67,-2.99 -1.39,-4.36 -10.37,-19.76 -18.26,-38.02 -24.15,-59.55 7.04,11.57 15.98,23.07 23.38,33.76 6.6,9.5 18.17,27.92 19.1,29.16 C 9.98,-0.7 6.09,-0.7 0,0"
         style="fill:#ff7733;fill-opacity:1;fill-rule:nonzero;stroke:none"
         id="path140" />
    </g>
    <g
       id="g178"
       transform="matrix(0.35277777,0,0,-0.35277777,25.714506,27.365404)">
      <path
         d="m 0,0 c 11.13,0.37 21.97,-4.22 31.03,-10.7 0.46,-0.33 0.93,-0.68 1.19,-1.18 1.68,3.06 3.49,6.18 4.73,9.44 0.98,2.57 2.22,5 2.06,7.75 -0.15,2.77 -2.49,5.59 -5.23,5.18 -2.3,-0.35 -3.7,-2.64 -5.18,-4.45 -1.48,-1.81 -4.16,-3.36 -6.02,-1.92 0.8,2.93 1.57,6.12 0.45,8.96 -0.63,1.55 -2.08,2.81 -3.65,3.28 C 16.43,14.11 13.51,11.81 10.62,9.49 10.6,9.47 10.6,9.47 10.59,9.46 6.7,6.35 2.87,3.18 -0.94,-0.06 -0.63,-0.03 -0.31,-0.01 0,0"
         style="fill:#7f95ff;fill-opacity:1;fill-rule:nonzero;stroke:none"
         id="path180" />
    </g>
    <g
       id="g324"
       transform="matrix(0.35277777,0,0,-0.35277777,78.719366,39.264598)">
      <path
         d="m 0,0 c -0.7,-3.56 -1.57,-7.26 -2.25,-10.82 0.35,-0.05 0.74,-0.13 1.07,-0.22 0.3,2.55 0.77,5.1 1.39,7.6 0.8,-0.77 1.61,-1.53 2.41,-2.28 C 2.58,-5.13 2.55,-4.51 2.54,-3.89 1.69,-2.59 0.84,-1.29 0,0"
         style="fill:#5a5a66;fill-opacity:1;fill-rule:nonzero;stroke:none"
         id="path326" />
    </g>
    <g
       id="g352"
       transform="matrix(0.35277777,0,0,-0.35277777,29.143616,43.113296)">
      <path
         d="M 0,0 C 0.9,0.78 1.72,1.65 2.63,2.44 1.12,3.09 -0.39,3.73 -1.91,4.37 -4.96,3.15 -8.11,2.09 -11.31,1.44 l 0.69,-3.14 c 0.27,0.1 0.56,0.18 0.84,0.2 1.46,0.16 2.85,-0.69 4.31,-0.84 C -3.44,-2.52 -1.53,-1.35 0,0"
         style="fill:#fb440f;fill-opacity:1;fill-rule:nonzero;stroke:none"
         id="path354" />
    </g>
    <g
       id="g356"
       transform="matrix(0.35277777,0,0,-0.35277777,67.268236,32.851026)">
      <path
         d="m 0,0 c 3.42,-0.89 6.19,-1.82 8.82,-3.06 2.44,-1.15 4.76,-2.55 7.42,-4.44 4.89,5.4 9.65,10.9 14.28,16.51 -2.49,4.53 -4.99,9.06 -7.48,13.58 0.24,-2.68 0.39,-5.66 0.39,-8.64 C 23.41,10.96 23.24,7.98 22.88,5.31 20.49,7.23 17.4,8.43 14.19,9.52 9.69,11.09 5,12.46 1.81,15.38 L 1.77,15.42 C -2.72,11.28 -7.12,7.03 -11.44,2.71 c -5.2,-5.21 -3.89,-7.16 -0.36,-13.49 0.77,-1.4 9.98,-15.65 9.98,-15.72 0.34,5.2 0.75,10.92 1.14,16.52 C -0.43,-6.56 -0.2,-3.19 0,0"
         style="fill:#7f95ff;fill-opacity:1;fill-rule:nonzero;stroke:none"
         id="path358" />
    </g>
    <g
       id="g406"
       transform="matrix(0.35277777,0,0,-0.35277777,67.751576,18.951617)">
      <path
         d="M 0,0 C 2.19,0.76 4.93,0.37 6.54,2.04 8.15,3.72 7.95,6.88 9.93,7.98 9.67,8.07 9.35,7.94 9.16,7.74 8.93,7.48 8.81,7.15 8.66,6.84 8.12,5.73 7.11,4.92 6.14,4.15 5.3,3.48 4.45,2.81 3.46,2.41 1.5,1.63 -0.76,2 -2.82,1.47 -4.52,1.03 -6.03,-0.04 -7.01,-1.49 -8.49,-3.72 -8.65,-6.54 -8.75,-9.2 l -0.08,-0.17 c 0.77,-0.4 1.52,-0.83 2.29,-1.24 C -5.63,-6.35 -4.13,-1.39 0,0"
         style="fill:#fb440f;fill-opacity:1;fill-rule:nonzero;stroke:none"
         id="path408" />
    </g>
    <g
       id="g440"
       transform="matrix(0.35277777,0,0,-0.35277777,30.798106,41.741098)">
      <path
         d="m 0,0 c 0.38,0.2 0.82,0.38 1.26,0.36 0.53,-0.03 1,-0.35 1.44,-0.63 1.37,-0.88 2.92,-1.71 4.55,-1.54 2.15,0.24 3.67,2.15 4.83,3.98 4.22,6.71 6.74,14.63 6.31,22.52 C 14.42,13.98 5.11,5.41 -5.42,0.97 -5.82,0.8 -6.2,0.64 -6.6,0.48 -5.08,-0.16 -3.57,-0.8 -2.06,-1.45 -1.41,-0.9 -0.74,-0.4 0,0"
         style="fill:#7f95ff;fill-opacity:1;fill-rule:nonzero;stroke:none"
         id="path442" />
    </g>
    <path
       id="path490"
       style="fill:#85ca91;fill-opacity:1;fill-rule:nonzero;stroke:none;stroke-width:0.352777"
       d="m 31.242536,41.613992 c -0.15522,-0.0071 -0.31044,0.05644 -0.4445,0.127 -0.26105,0.14111 -0.49742,0.3175 -0.72672,0.511527 4.86128,2.067277 9.70139,4.134556 14.605,6.198306 9.02758,3.806471 20.32705,8.459607 29.94025,10.336387 -2.27189,-5.01297 -6.27592,-9.99772 -9.18634,-14.672027 -2.06727,-3.330223 -3.87702,-6.34647 -5.87727,-9.909527 -2.45886,-4.377973 -8.23384,-12.054416 -8.43845,-12.054416 C 55.742956,15.413185 62.477476,7.5603535 66.781366,0.93165946 54.561146,6.5055485 43.141736,13.462325 32.551346,21.593852 c 0.55386,0.165806 1.06539,0.610306 1.28764,1.157113 0.39511,1.001887 0.12347,2.12725 -0.15875,3.160887 0.65616,0.508 1.60161,-0.0388 2.12372,-0.677333 0.52211,-0.638527 1.016,-1.446387 1.82739,-1.569861 0.96661,-0.144639 1.79211,0.850194 1.84502,1.82739 0.0564,0.970137 -0.381,1.827387 -0.72672,2.734027 -0.43744,1.150056 -1.07597,2.250723 -1.66864,3.330223 0.0741,0.14111 0.0776,0.303387 0.10584,0.45861 0.0494,0.33514 0.0847,0.677334 0.0988,1.016 0.15169,2.783417 -0.73731,5.577417 -2.22603,7.944554 -0.40922,0.645584 -0.94544,1.31939 -1.70392,1.404057 -0.57502,0.05997 -1.12183,-0.232834 -1.60514,-0.543277 -0.15522,-0.09878 -0.32102,-0.211667 -0.508,-0.22225" />
    <g
       id="g560"
       transform="matrix(0.35277777,0,0,-0.35277777,15.244026,39.800818)">
      <path
         d="m 0,0 c 0.12,5.68 8.02,15.63 10.89,18.99 0.47,0.54 0.95,1.09 1.44,1.61 0.07,0.12 0.15,0.23 0.24,0.34 0.27,0.26 0.54,0.5 0.83,0.75 0.11,0.12 0.22,0.22 0.35,0.34 0.27,0.27 0.56,0.52 0.86,0.77 4.64,4.21 9.36,8.36 14.13,12.39 C 26.9,35.09 25.06,34.82 23.31,34.27 20.73,33.44 18.4,32.02 16.17,30.48 9.99,26.19 4.4,20.86 0.54,14.39 0.2,13.82 -0.13,13.22 -0.41,12.61 -1.18,11.04 -1.69,9.39 -1.61,7.68 -1.48,5.56 -0.43,2.45 0,0"
         style="fill:#85ca91;fill-opacity:1;fill-rule:nonzero;stroke:none"
         id="path562" />
    </g>
    <g
       id="g572"
       transform="matrix(0.35277777,0,0,-0.35277777,77.798686,43.077984)">
      <path
         d="M 0,0 C -0.13,-0.53 -0.25,-1.04 -0.38,-1.57 0.23,-2.18 0.74,-2.88 1.13,-3.65 1.2,-2.51 1.3,-1.37 1.43,-0.23 1.1,-0.14 0.71,-0.06 0.36,-0.01 0.24,-0.01 0.12,0 0,0"
         style="fill:#5a5a66;fill-opacity:1;fill-rule:nonzero;stroke:none"
         id="path574" />
    </g>
    <g
       id="g590"
       transform="matrix(0.35277777,0,0,-0.35277777,20.398216,31.757381)">
      <path
         d="m 0,0 c 1.12,0.98 2.32,1.86 3.63,2.59 1.8,1 3.73,1.68 5.74,2.15 1.78,0.43 3.62,0.67 5.46,0.83 0.33,0.03 0.67,0.05 1,0.07 0.58,0.04 1.16,0.08 1.75,0.11 2.62,0.1 5.21,0.07 7.75,-0.14 8.34,-0.71 16.11,-3.39 22.54,-9.22 -0.04,0.96 -0.14,1.93 -0.28,2.88 -0.08,0.44 -0.09,0.9 -0.3,1.3 C 47.03,1.07 46.56,1.42 46.1,1.75 37.04,8.23 26.2,12.82 15.07,12.45 14.76,12.44 14.44,12.42 14.13,12.39 9.36,8.36 4.64,4.21 0,0"
         style="fill:#7f95ff;fill-opacity:1;fill-rule:nonzero;stroke:none"
         id="path592" />
    </g>
    <g
       id="g764"
       transform="matrix(0.35277777,0,0,-0.35277777,27.467926,30.159367)">
      <path
         d="m 0,0 c 2.07,-1.57 3.12,-4.33 2.73,-7.06 -0.53,-3.67 -3.97,-6.63 -7.67,-6.81 -3.7,-0.17 -7.32,2.37 -8.58,5.85 -0.52,1.44 -0.68,3.05 -0.17,4.47 0.53,1.48 1.75,2.84 3.02,3.76 -2.01,-0.47 -3.94,-1.15 -5.74,-2.15 -1.31,-0.73 -2.51,-1.61 -3.63,-2.59 -0.29,-0.26 -0.57,-0.52 -0.86,-0.77 -0.13,-0.12 -0.24,-0.22 -0.35,-0.34 -0.36,-0.36 -0.72,-0.72 -1.07,-1.09 -2.04,-2.9 -2.05,-7.22 -0.57,-10.46 1.52,-3.36 4.51,-5.89 7.82,-7.53 0.27,-0.15 0.55,-0.27 0.84,-0.4 2.14,-0.94 4.43,-1.51 6.75,-1.41 4.45,0.2 8.4,2.88 11.62,5.94 1.36,1.31 2.66,2.71 3.6,4.34 3.25,5.59 2.07,12.47 -2.46,17.07 L 5.29,1.08 C 2.75,1.29 0.16,1.32 -2.46,1.22 V 1.17 C -1.53,0.95 -0.69,0.55 0,0.01 Z"
         style="fill:#7f95ff;fill-opacity:1;fill-rule:nonzero;stroke:none"
         id="path766" />
    </g>
    <g
       id="g856"
       transform="matrix(0.35277777,0,0,-0.35277777,67.042426,36.371749)">
      <path
         d="M 0,0 C 1.97,-0.3 3.88,-0.9 5.66,-1.8 5.69,-0.53 5.71,0.74 5.74,2.02 6.94,1.91 8.09,1.62 9.19,1.17 9.21,3.07 9.45,5.01 9.46,6.92 6.83,8.16 4.06,9.09 0.64,9.98 0.44,6.79 0.21,3.42 -0.04,0 Z"
         style="fill:#85ca91;fill-opacity:1;fill-rule:nonzero;stroke:none"
         id="path858" />
    </g>
    <g
       id="g888"
       transform="matrix(0.35277777,0,0,-0.35277777,2.6287662,19.734678)">
      <path
         d="m 0,0 c -1.41,-2.31 -0.1,-5.46 2.05,-7.1 2.15,-1.64 4.9,-2.21 7.5,-2.97 4.78,-1.42 9.34,-3.65 13.39,-6.59 -2.95,5.22 -6.87,10.55 -11.63,14.19 C 7.99,0.07 3.23,2.65 0,0"
         style="fill:#fb440f;fill-opacity:1;fill-rule:nonzero;stroke:none"
         id="path890" />
    </g>
    <g
       id="g1004"
       transform="matrix(0.35277777,0,0,-0.35277777,28.430966,32.650014)">
      <path
         d="M 0,0 C 0.39,2.73 -0.66,5.49 -2.73,7.06 -3.41,5.41 -3.92,4.24 -4.58,2.74 -5.13,1.46 -5.53,0.18 -6.09,-1.09 -6.07,1.34 -6.25,4.19 -6.72,6.8 -6.79,7.21 -6.86,7.74 -6.94,8.17 -7.27,8.15 -7.61,8.13 -7.94,8.1 -9.78,7.94 -11.62,7.7 -13.4,7.27 c -1.27,-0.92 -2.49,-2.28 -3.02,-3.76 -0.51,-1.42 -0.35,-3.03 0.17,-4.47 1.26,-3.48 4.88,-6.02 8.58,-5.85 3.7,0.18 7.14,3.14 7.67,6.81"
         style="fill:#5a5a66;fill-opacity:1;fill-rule:nonzero;stroke:none"
         id="path1006" />
    </g>
    <g
       id="g1098"
       transform="matrix(0.35277777,0,0,-0.35277777,75.533896,27.929707)">
      <path
         d="m 0,0 c 0,2.98 -0.15,5.96 -0.39,8.64 -1.45,2.63 -2.91,5.26 -4.34,7.89 -5.76,-4.9 -11.4,-9.91 -16.93,-15.06 l 0.04,-0.04 c 3.19,-2.92 7.88,-4.29 12.38,-5.86 0.03,2.34 0.05,4.65 0.07,6.97 1.33,-1.1 2.65,-2.21 3.98,-3.32 -0.13,1.64 0,3.29 0.37,4.9 1.77,-1.2 3.36,-2.58 4.74,-4.12 z"
         style="fill:#85ca91;fill-opacity:1;fill-rule:nonzero;stroke:none"
         id="path1100" />
    </g>
    <g
       id="g1166"
       transform="matrix(0.35277777,0,0,-0.35277777,72.630536,44.411553)">
      <path
         d="M 0,0 C 0.52,1.41 -0.54,3.44 -1.82,4.59 -2.1,4.86 -2.4,5.08 -2.7,5.23 -3.7,4.06 -4.87,3.02 -6.18,2.21 c -2.07,-1.28 -5.04,-2.42 -4.86,-4.84 0.1,-1.51 1.64,-2.62 3.15,-2.72 1.51,-0.09 2.96,0.6 4.25,1.39 C -2.1,-2.97 -0.62,-1.71 0,0"
         style="fill:#ff7733;fill-opacity:1;fill-rule:nonzero;stroke:none"
         id="path1168" />
    </g>
    <g
       id="g1186"
       transform="matrix(0.35277777,0,0,-0.35277777,77.357716,37.052681)">
      <path
         d="M 0,0 C 1.1,1.39 2.36,2.64 3.47,4.01 4.64,5.42 5.64,6.97 6.45,8.62 6.58,8.89 6.72,9.19 6.74,9.49 6.78,10.21 6.22,10.76 5.65,11.22 1.98,6.17 -0.8,3.45 -3.64,-0.41 c -4.33,-5.94 -7.87,-9.8 -12.46,-15.22 0.3,-0.15 0.6,-0.37 0.88,-0.64 4.49,2.95 8.18,7.11 10.59,11.93 0.42,-0.52 0.85,-1.01 1.28,-1.53 0.8,2.13 1.94,4.11 3.35,5.87"
         style="fill:#5a5a66;fill-opacity:1;fill-rule:nonzero;stroke:none"
         id="path1188" />
    </g>
    <g
       id="g1238"
       transform="matrix(0.35277777,0,0,-0.35277777,77.664666,43.63195)">
      <path
         d="m 0,0 c -0.67,0.66 -1.46,1.2 -2.31,1.6 -0.5,-2.32 -0.84,-4.68 -1.03,-7.05 0.5,-0.59 1.01,-1.16 1.54,-1.71 0.6,2.39 1.2,4.78 1.8,7.16"
         style="fill:#5a5a66;fill-opacity:1;fill-rule:nonzero;stroke:none"
         id="path1240" />
    </g>
    <g
       id="g1340"
       transform="matrix(0.35277777,0,0,-0.35277777,75.078776,50.084257)">
      <path
         d="m 0,0 c 0.07,0.8 0.15,1.59 0.19,2.38 -0.97,1.59 -1.84,3.27 -2.57,5 -0.68,0.03 -1.35,-0.26 -1.83,-0.74 l 0.2,-0.23 C -2.68,4.27 -1.34,2.13 0,0"
         style="fill:#ff7733;fill-opacity:1;fill-rule:nonzero;stroke:none"
         id="path1342" />
    </g>
    <g
       id="g1490"
       transform="matrix(0.35277777,0,0,-0.35277777,32.244536,10.816526)">
      <path
         d="m 0,0 c -1.65,-5.97 -2.47,-14.88 -2.89,-21.06 5.67,7.18 11.32,14.36 17,21.54 1.48,1.88 3.04,4 2.92,6.41 -0.27,4.4 -6.46,6.31 -10.28,4.09 C 2.93,8.77 1.18,4.26 0,0"
         style="fill:#fb440f;fill-opacity:1;fill-rule:nonzero;stroke:none"
         id="path1492" />
    </g>
    <g
       id="g1574"
       transform="matrix(0.35277777,0,0,-0.35277777,56.515576,22.182957)">
      <path
         d="m 0,0 c -1.19,-2.55 -0.75,-5.97 1.49,-7.68 0.92,-0.7 2.06,-1.07 3.19,-1.38 2.25,-0.61 5.31,-0.63 6.21,1.54 0.94,2.25 -1.38,4.37 -2.64,6.47 C 8.23,-1.01 8.2,-0.95 8.17,-0.91 6.73,1.6 7.04,4.17 9.32,5.97 8.37,5.67 7.37,5.46 6.42,5.14 3.74,4.26 1.22,2.54 0,0"
         style="fill:#fb440f;fill-opacity:1;fill-rule:nonzero;stroke:none"
         id="path1576" />
    </g>
    <g
       id="g1586"
       transform="matrix(0.35277777,0,0,-0.35277777,59.397736,22.504019)">
      <path
         d="m 0,0 c 0.3,2.48 3.13,3.75 5.46,4.79 5.27,2.37 10.18,6.75 11,12.48 0.25,1.91 0.07,3.84 0.32,5.74 0.23,1.67 0.83,3.28 1.71,4.7 0.89,1.43 2.11,2.77 2.31,4.43 0.22,1.67 -1.44,3.61 -2.95,2.87 l 0.33,-0.15 C 15.39,28.79 12.61,22.71 9.82,16.64 8.16,13.04 6.24,9.15 2.63,7.45 2.15,7.22 1.67,7.04 1.15,6.88 -1.13,5.08 -1.44,2.51 0,0"
         style="fill:#5a5a66;fill-opacity:1;fill-rule:nonzero;stroke:none"
         id="path1588" />
    </g>
    <g
       id="g1646"
       transform="matrix(0.35277777,0,0,-0.35277777,15.748536,20.334472)">
      <path
         d="m 0,0 c -1.41,6.56 -2.82,13.11 -4.23,19.67 -0.62,2.83 -1.33,5.85 -3.5,7.76 -2.16,1.92 -6.26,1.81 -7.36,-0.87 -0.81,-2.01 0.4,-4.22 1.59,-6.03 C -8.88,13.6 -4.93,6.41 0,0"
         style="fill:#fb440f;fill-opacity:1;fill-rule:nonzero;stroke:none"
         id="path1648" />
    </g>
    <g
       id="g1726"
       transform="matrix(0.35277777,0,0,-0.35277777,62.474026,25.082859)">
      <path
         d="M 0,0 C -1.13,-3.28 -2.84,-6.43 -5.4,-8.78 -5.81,-9.15 -6.26,-9.53 -6.46,-10.05 -6.64,-10.5 -6.57,-11.1 -6.2,-11.39 0.3,-6.71 4,1.57 3.19,9.52 L 3.09,9.5 C 2.81,9.72 2.54,9.94 2.25,10.16 1.68,6.74 1.12,3.29 0,0"
         style="fill:#5a5a66;fill-opacity:1;fill-rule:nonzero;stroke:none"
         id="path1728" />
    </g>
    <g
       id="g1758"
       transform="matrix(0.35277777,0,0,-0.35277777,19.925396,19.678374)">
      <path
         d="m 0,0 c 0.31,-5.12 -0.06,-10.28 -1.07,-15.31 -3.62,-0.05 -6.97,2.62 -10.55,2.08 -3.4,-0.52 -5.75,-3.93 -6.24,-7.32 -0.49,-3.41 0.43,-6.84 1.27,-10.17 1.13,-4.53 2.1,-9.11 2.91,-13.71 0.28,0.61 0.61,1.21 0.95,1.78 3.86,6.47 9.45,11.8 15.63,16.09 2.23,1.54 4.56,2.96 7.14,3.79 1.75,0.55 3.59,0.82 5.43,0.92 3.81,3.24 7.64,6.41 11.53,9.52 -1.56,2.18 -1.13,5.57 -1.64,8.19 -0.51,2.63 -1.84,5.49 -4.42,6.19 C 18.61,2.67 16.17,1.19 14.67,-0.72 13.18,-2.63 12.32,-4.95 11,-6.97 9.97,-2.26 4.71,1.09 0,0"
         style="fill:#fb440f;fill-opacity:1;fill-rule:nonzero;stroke:none"
         id="path1760" />
    </g>
    <g
       id="g1786"
       transform="matrix(0.35277777,0,0,-0.35277777,83.626576,36.241185)">
      <path
         d="m 0,0 c 6.09,-0.7 9.98,-0.7 16.94,-0.99 0,0.02 0,0.02 0.01,0.02 C 8.66,15.16 0.29,27.6 -9.39,42.94 -21.41,61.96 -32.01,84.01 -47.75,100.09 -31.21,68.62 -16.13,35.3 -1.02,3.12 -0.55,2.12 -0.06,1.09 0,0"
         style="fill:#ff7733;fill-opacity:1;fill-rule:nonzero;stroke:none"
         id="path1788" />
    </g>
    <g
       id="g1806"
       transform="matrix(0.35277777,0,0,-0.35277777,22.373806,42.855769)">
      <path
         d="m 0,0 c -3.98,0.15 -15.98,2.01 -19.28,5.9 2.89,-4.88 7.66,-9.17 12.75,-11.46 1.33,-0.6 2.71,-1.1 4.16,-1.21 3.12,-0.26 6.11,1.27 8.69,3.05 0.71,0.5 1.46,1.01 2.25,1.29 L 7.88,0.71 C 5.28,0.17 2.65,-0.1 0,0"
         style="fill:#fb440f;fill-opacity:1;fill-rule:nonzero;stroke:none"
         id="path1808" />
    </g>
  </g>
</svg>
